{
	"asset":
	{
		"version": "2.0",
		"generator": "Unreal Engine 5.4.4"
	},
	"scene": 0,
	"accessors": [
		{
			"bufferView": 0,
			"count": 5391,
			"type": "SCALAR",
			"componentType": 5123
		},
		{
			"bufferView": 1,
			"count": 3861,
			"type": "VEC3",
			"componentType": 5126,
			"min": [ -1.52699959, -4.0000248, -3.58815432 ],
			"max": [ 1.18942773, 2.04536057, 3.58815432 ]
		},
		{
			"bufferView": 2,
			"count": 3861,
			"type": "VEC3",
			"componentType": 5126
		},
		{
			"bufferView": 3,
			"count": 3861,
			"type": "VEC4",
			"componentType": 5126
		},
		{
			"bufferView": 4,
			"count": 3861,
			"type": "VEC2",
			"componentType": 5126
		},
		{
			"bufferView": 5,
			"count": 3861,
			"type": "VEC2",
			"componentType": 5126
		}
	],
	"buffers": [
		{
			"uri": "Blob_bolhosoMaterialFinal.bin",
			"byteLength": 227000
		}
	],
	"bufferViews": [
		{
			"buffer": 0,
			"byteLength": 10782,
			"target": 34963
		},
		{
			"buffer": 0,
			"byteLength": 46332,
			"byteOffset": 10784,
			"target": 34962
		},
		{
			"buffer": 0,
			"byteLength": 46332,
			"byteOffset": 57116,
			"target": 34962
		},
		{
			"buffer": 0,
			"byteLength": 61776,
			"byteOffset": 103448,
			"target": 34962
		},
		{
			"buffer": 0,
			"byteLength": 30888,
			"byteOffset": 165224,
			"target": 34962
		},
		{
			"buffer": 0,
			"byteLength": 30888,
			"byteOffset": 196112,
			"target": 34962
		}
	],
	"images": [
		{
			"uri": "Blob_bolhosoEscolhida_Low_Blob_Bolhoso_BaseColor.png"
		},
		{
			"uri": "Blob_bolhosoEscolhida_Low_Blob_Bolhoso_Emissive.png"
		},
		{
			"uri": "Blob_bolhosoEscolhida_Low_Blob_Bolhoso_Normal.png"
		}
	],
	"materials": [
		{
			"name": "Blob_bolhosoEscolhida_Low_Blob_Bolhoso",
			"pbrMetallicRoughness":
			{
				"baseColorTexture":
				{
					"index": 0,
					"texCoord": 1,
					"extensions":
					{
						"KHR_texture_transform":
						{
							"offset": [ -0.0081943702, -0.00825168844 ],
							"scale": [ 1.01613295, 1.02324057 ]
						}
					}
				},
				"metallicFactor": 0,
				"roughnessFactor": 0.5
			},
			"normalTexture":
			{
				"index": 2,
				"texCoord": 1,
				"extensions":
				{
					"KHR_texture_transform":
					{
						"offset": [ -0.0081943702, -0.00825168844 ],
						"scale": [ 1.01613295, 1.02324057 ]
					}
				}
			},
			"emissiveTexture":
			{
				"index": 1,
				"texCoord": 1,
				"extensions":
				{
					"KHR_texture_transform":
					{
						"offset": [ -0.0081943702, -0.00825168844 ],
						"scale": [ 1.01613295, 1.02324057 ]
					}
				}
			},
			"emissiveFactor": [ 1, 1, 1 ],
			"alphaMode": "BLEND",
			"extensions":
			{
				"KHR_materials_ior":
				{
					"ior": 1
				},
				"KHR_materials_emissive_strength":
				{
					"emissiveStrength": 1.77929688
				}
			}
		}
	],
	"meshes": [
		{
			"name": "Low_Blob_Bolhoso",
			"primitives": [
				{
					"attributes":
					{
						"POSITION": 1,
						"NORMAL": 2,
						"TANGENT": 3,
						"TEXCOORD_0": 4,
						"TEXCOORD_1": 5
					},
					"indices": 0,
					"material": 0
				}
			]
		}
	],
	"nodes": [
		{
			"mesh": 0
		}
	],
	"samplers": [
		{
			"minFilter": 9987,
			"magFilter": 9729
		}
	],
	"scenes": [
		{
			"nodes": [ 0 ]
		}
	],
	"textures": [
		{
			"name": "Blob_bolhosoEscolhida_Low_Blob_Bolhoso_BaseColor",
			"sampler": 0,
			"source": 0
		},
		{
			"name": "Blob_bolhosoEscolhida_Low_Blob_Bolhoso_Emissive",
			"sampler": 0,
			"source": 1
		},
		{
			"name": "Blob_bolhosoEscolhida_Low_Blob_Bolhoso_Normal",
			"sampler": 0,
			"source": 2
		}
	],
	"extensionsUsed": [
		"KHR_texture_transform",
		"KHR_materials_ior",
		"KHR_materials_emissive_strength"
	]
}